<svg height="512" viewBox="0 0 64 64" width="512" xmlns="http://www.w3.org/2000/svg"><g id="Shield"><path d="m57.4023 12.085-24.9995-11a.9972.9972 0 0 0 -.8056 0l-25 11a.9992.9992 0 0 0 -.5972.915v18.123a31.1614 31.1614 0 0 0 17.5854 27.947l7.982 3.8311a.9983.9983 0 0 0 .8652 0l7.9815-3.8311a31.1619 31.1619 0 0 0 17.5859-27.947v-18.123a.9988.9988 0 0 0 -.5977-.915z" fill="#e6ecff"/><path d="m53.4023 14.6953-20.9995-9.24a.9972.9972 0 0 0 -.8056 0l-21 9.24a.9994.9994 0 0 0 -.5972.9147v15.513a27.14 27.14 0 0 0 15.3164 24.3409l6.251 3.0009a.9974.9974 0 0 0 .8652 0l6.251-3.0009a27.1393 27.1393 0 0 0 15.3164-24.3409v-15.513a.9991.9991 0 0 0 -.5977-.9147z" fill="#4294ff"/><path d="m32.4326 58.4648 6.251-3.0009a27.1393 27.1393 0 0 0 15.3164-24.3409v-15.513a.9991.9991 0 0 0 -.5977-.9151l-20.9995-9.24a.9967.9967 0 0 0 -.4028-.0849v53.1935a1.0015 1.0015 0 0 0 .4326-.0987z" fill="#376cfb"/></g></svg>
